<?xml version="1.0" standalone="no"?>
<!DOCTYPE svg PUBLIC "-//W3C//DTD SVG 20010904//EN"
 "http://www.w3.org/TR/2001/REC-SVG-20010904/DTD/svg10.dtd">
<svg version="1.0" xmlns="http://www.w3.org/2000/svg"
 width="360.000000pt" height="360.000000pt" viewBox="0 0 360.000000 360.000000"
 preserveAspectRatio="xMidYMid meet">
<metadata>
Created by potrace 1.11, written by Peter Selinger 2001-2013
</metadata>
<g transform="translate(0.000000,360.000000) scale(0.100000,-0.100000)"
fill="#000000" stroke="none">
<path d="M1590 3590 c-340 -47 -582 -146 -880 -357 -152 -108 -362 -347 -468
-532 -119 -207 -200 -454 -229 -696 -14 -120 -8 -393 12 -500 61 -335 190
-612 398 -861 283 -339 659 -549 1127 -631 71 -12 422 -10 510 3 589 89 1088
449 1353 979 87 173 141 343 173 545 13 83 14 476 1 526 -3 12 -8 37 -11 55
-38 235 -179 564 -323 749 -172 223 -347 376 -578 507 -128 72 -357 160 -464
178 -19 3 -37 7 -40 9 -3 2 -26 7 -51 10 -25 3 -56 9 -70 12 -38 9 -398 12
-460 4z"/>
</g>
</svg>
